<?xml version="1.0" standalone="no"?>
<!DOCTYPE svg PUBLIC "-//W3C//DTD SVG 20010904//EN"
 "http://www.w3.org/TR/2001/REC-SVG-20010904/DTD/svg10.dtd">
<svg version="1.0" xmlns="http://www.w3.org/2000/svg"
 width="359.000000pt" height="360.000000pt" viewBox="0 0 359.000000 360.000000"
 preserveAspectRatio="xMidYMid meet">

<g transform="translate(0.000000,360.000000) scale(0.100000,-0.100000)"
fill="#000000" stroke="none">
<path d="M1342 3114 c-132 -66 -203 -237 -188 -454 16 -243 109 -500 250 -697
36 -51 66 -97 66 -102 0 -18 -150 -273 -201 -342 -55 -75 -131 -149 -177 -173
-17 -9 -49 -16 -71 -16 l-40 0 45 96 c97 207 136 378 114 501 -14 82 -49 155
-98 206 -139 144 -291 80 -374 -157 -32 -93 -37 -205 -14 -292 33 -123 148
-285 242 -340 24 -14 44 -28 44 -31 0 -15 -97 -151 -136 -189 -28 -29 -42 -50
-36 -56 13 -13 113 97 159 175 l37 63 50 0 c31 -1 67 7 91 19 87 42 201 184
329 413 32 56 60 102 63 102 3 0 31 -24 62 -52 80 -74 139 -102 228 -106 61
-4 80 0 127 21 55 25 158 99 186 132 12 15 20 4 71 -104 32 -67 78 -152 103
-190 74 -110 172 -191 234 -191 13 0 32 -21 58 -66 28 -47 74 -99 157 -177
149 -140 179 -193 185 -328 4 -80 2 -94 -22 -142 -38 -78 -84 -102 -196 -102
-97 1 -164 19 -358 96 -193 77 -280 100 -412 106 -192 9 -345 -26 -496 -114
-188 -109 -242 -133 -300 -133 -87 0 -143 40 -186 135 -18 40 -22 68 -22 140
0 104 14 149 94 288 49 86 58 107 42 107 -12 0 -100 -151 -129 -221 -69 -168
-24 -383 93 -451 84 -49 166 -32 339 67 147 85 225 120 315 138 223 47 395 23
675 -94 265 -110 448 -119 532 -28 55 60 74 168 49 282 -21 91 -57 150 -139
225 -116 107 -165 160 -196 213 l-30 53 55 22 c107 43 220 162 287 302 34 71
40 94 44 170 6 105 -8 180 -49 262 -68 137 -172 147 -286 26 -112 -118 -162
-299 -141 -516 8 -81 16 -122 45 -222 4 -14 1 -16 -24 -9 -102 30 -176 116
-280 328 -84 170 -82 154 -25 221 165 193 249 366 289 593 20 117 15 328 -10
406 -69 217 -255 257 -415 88 -173 -182 -172 -461 1 -984 l52 -155 -61 -56
c-166 -152 -316 -154 -478 -7 l-59 54 46 100 c104 224 148 405 148 607 0 263
-87 484 -213 545 -56 27 -82 26 -145 -5z m136 -18 c43 -23 88 -76 120 -141
102 -208 107 -492 12 -775 -34 -102 -112 -280 -122 -280 -15 0 -108 136 -157
230 -60 115 -103 240 -131 380 -17 84 -21 130 -18 230 5 149 26 213 93 288 70
77 140 101 203 68z m824 -6 c53 -15 113 -88 137 -165 59 -190 25 -477 -83
-700 -46 -96 -144 -240 -200 -294 l-34 -33 -55 169 c-78 237 -109 380 -115
537 -5 143 5 211 45 291 50 98 114 160 202 191 44 16 56 17 103 4z m-1319
-938 c44 -29 88 -88 114 -153 29 -71 24 -239 -10 -352 -28 -90 -124 -307 -137
-307 -4 0 -32 18 -62 40 -101 72 -191 216 -218 345 -27 130 19 298 108 397 66
74 129 83 205 30z m1824 18 c85 -51 141 -239 113 -376 -36 -179 -196 -373
-341 -414 -24 -7 -29 -4 -38 18 -46 115 -63 328 -37 452 31 144 113 277 198
319 53 26 65 26 105 1z"/>
</g>
</svg>
