<?xml version="1.0" standalone="no"?>
<!DOCTYPE svg PUBLIC "-//W3C//DTD SVG 20010904//EN"
 "http://www.w3.org/TR/2001/REC-SVG-20010904/DTD/svg10.dtd">
<svg version="1.0" xmlns="http://www.w3.org/2000/svg"
 width="300.000000pt" height="300.000000pt" viewBox="0 0 300.000000 300.000000"
 preserveAspectRatio="xMidYMid meet">
<metadata>
Created by potrace 1.10, written by Peter Selinger 2001-2011
</metadata>
<g transform="translate(0.000000,300.000000) scale(0.100000,-0.100000)"
fill="#000000" stroke="none">
<path d="M876 2359 c-117 -17 -234 -98 -285 -197 -72 -141 -66 -323 15 -488
54 -110 143 -212 441 -507 283 -280 383 -393 428 -481 19 -39 24 -44 20 -21
-10 48 -83 151 -201 280 l-109 119 100 -80 c112 -91 194 -174 219 -222 9 -18
18 -32 20 -32 2 0 18 29 35 64 31 63 57 90 235 246 16 14 -6 -18 -50 -70 -123
-147 -175 -241 -173 -309 1 -19 4 -14 14 20 7 26 23 67 36 93 46 92 251 326
416 474 170 152 264 272 344 437 62 129 83 215 76 322 -6 100 -36 171 -104
244 -115 124 -285 150 -448 70 -121 -60 -290 -233 -365 -373 l-32 -60 -26 63
c-39 99 -97 183 -175 254 -136 124 -279 175 -431 154z m84 -29 c-104 -11 -164
-36 -228 -95 -99 -92 -138 -196 -130 -353 6 -115 34 -196 104 -304 26 -40 39
-66 30 -59 -31 26 -106 149 -131 215 -69 183 -46 368 61 485 73 81 168 120
289 119 l70 -1 -65 -7z m1272 -22 c71 -33 133 -95 166 -167 32 -67 41 -193 22
-281 -32 -143 -142 -334 -270 -471 l-70 -74 80 108 c165 223 228 430 189 619
-14 65 -51 143 -87 181 -34 36 -105 72 -157 80 -61 10 -168 -17 -252 -64 -87
-47 -89 -39 -6 17 130 87 268 105 385 52z m-1109 -29 c142 -48 246 -157 339
-355 l30 -63 -23 -58 c-30 -78 -32 -192 -5 -222 24 -27 48 -27 72 0 24 26 24
130 0 212 l-17 58 36 65 c99 177 282 319 457 356 91 19 158 -1 224 -67 42 -42
56 -65 73 -120 25 -81 28 -219 6 -312 -30 -128 -122 -285 -269 -460 -87 -104
-129 -145 -296 -288 -132 -113 -189 -174 -210 -224 -12 -29 -30 -42 -30 -22 0
22 -125 142 -265 255 -233 188 -433 401 -529 565 -104 178 -122 362 -49 510
83 170 260 236 456 170z m400 -601 c2 -78 -14 -107 -39 -73 -17 22 -14 86 7
160 l12 40 9 -30 c5 -16 10 -60 11 -97z"/>
</g>
</svg>
